<svg width="265" height="286" viewBox="0 0 265 286" fill="none" xmlns="http://www.w3.org/2000/svg">
<g clip-path="url(#clip0_12_8185)">
<path d="M185.716 125.234C201.642 125.234 214.552 112.345 214.552 96.4457C214.552 80.5465 201.642 67.6577 185.716 67.6577C169.791 67.6577 156.88 80.5465 156.88 96.4457C156.88 112.345 169.791 125.234 185.716 125.234Z" fill="#FF6584"/>
<path d="M264.815 117.91C264.878 117.898 264.926 117.854 265 117.865C264.968 117.741 264.925 117.619 264.874 117.501C264.782 117.626 264.688 117.753 264.606 117.865L264.815 117.91Z" fill="white"/>
<path d="M71.4081 164.581C71.5765 170.862 72.6303 177.088 74.5384 183.075C74.582 183.214 74.6277 183.351 74.6734 183.49H86.3557C86.3432 183.365 86.3307 183.226 86.3183 183.075C85.5393 174.135 81.0484 119.724 86.418 110.419C85.9485 111.174 70.5024 136.175 71.4081 164.581Z" fill="#E6E6E6"/>
<path d="M72.2847 183.075C72.3823 183.214 72.4841 183.353 72.5879 183.49H81.3517C81.2852 183.371 81.2084 183.233 81.1191 183.075C79.6713 180.466 75.386 172.667 71.4081 164.581C67.1332 155.892 63.2114 146.873 63.5417 143.609C63.4399 144.345 60.482 166.788 72.2847 183.075Z" fill="#E6E6E6"/>
<path d="M163.352 184.571C163.206 190.046 162.287 195.474 160.623 200.694C160.585 200.815 160.545 200.934 160.506 201.055H150.321C150.332 200.947 150.343 200.826 150.353 200.694C151.033 192.9 154.948 145.463 150.266 137.351C150.676 138.009 164.142 159.805 163.352 184.571Z" fill="#E6E6E6"/>
<path d="M162.588 200.694C162.503 200.815 162.414 200.936 162.324 201.055H154.683C154.741 200.952 154.808 200.831 154.886 200.694C156.148 198.419 159.884 191.62 163.352 184.571C167.079 176.995 170.498 169.133 170.21 166.287C170.299 166.929 172.878 186.494 162.588 200.694Z" fill="#E6E6E6"/>
<path d="M46.9022 23.3668L51.6517 19.5744C47.962 19.168 46.446 21.1769 45.8255 22.767C42.9429 21.5721 39.8049 23.1381 39.8049 23.1381L49.3079 26.5823C48.8285 25.3039 47.994 24.1885 46.9022 23.3668V23.3668Z" fill="#213924"/>
<path d="M189.955 3.84556L194.705 0.0531116C191.015 -0.353291 189.499 1.65567 188.878 3.24578C185.996 2.05081 182.858 3.61687 182.858 3.61687L192.361 7.06108C191.882 5.7827 191.047 4.66726 189.955 3.84556V3.84556Z" fill="#213924"/>
<path d="M259.836 153.819C259.836 156.961 259.727 160.078 259.507 163.169C257.816 187.555 249.346 210.987 235.05 230.833C233.182 233.436 231.22 235.966 229.165 238.423C223.84 244.799 217.928 250.662 211.506 255.935L183.357 239.445L166.526 200.228C166.526 200.228 191.638 149.468 259.792 150.388C259.82 151.528 259.835 152.671 259.836 153.819Z" fill="#213924"/>
<path d="M259.507 163.169C258.212 181.392 253.148 199.149 244.634 215.32C236.12 231.491 224.341 245.725 210.04 257.123L183.889 241.805L168.963 207.024C168.963 207.024 193.149 158.137 259.507 163.169Z" fill="#40DF9F"/>
<path d="M235.05 230.833C233.181 233.436 231.22 235.966 229.165 238.423C215.394 254.94 197.799 267.858 177.902 276.058C173.873 277.716 169.75 279.179 165.531 280.445C135.071 288.532 102.801 286.487 73.61 274.619C44.7404 261.755 21.4109 239.036 7.81162 210.543C5.984 206.707 4.3405 202.774 2.8811 198.744C28.3337 180.129 78.4877 153.474 133.15 179.375C148.27 186.54 161.772 193.07 173.654 198.967C203.806 213.888 223.873 224.645 235.05 230.833Z" fill="#213924"/>
<path d="M229.165 238.423C214.93 255.454 196.634 268.638 175.959 276.762C155.285 284.886 132.895 287.689 110.852 284.912C88.8081 282.136 67.8178 273.869 49.812 260.874C31.8062 247.878 17.3631 230.57 7.81165 210.543C29.0689 193.761 78.0978 163.603 131.903 189.094C145.74 195.65 158.093 201.627 168.963 207.024C200.65 222.703 220.169 233.359 229.165 238.423Z" fill="#40DF9F"/>
<path d="M191.646 269.445C187.194 271.909 182.606 274.117 177.902 276.058C161.896 282.643 144.748 286.021 127.436 286C106.95 285.992 86.7448 281.243 68.4075 272.125C50.0701 263.007 34.0996 249.77 21.7504 233.452C53.3722 230.123 140.781 225.635 191.646 269.445Z" fill="#213924"/>
<path d="M177.902 276.058C153.082 286.247 125.748 288.674 99.5164 283.018C73.2846 277.362 49.3904 263.89 30.994 244.383C42.4958 242.696 132.797 231.112 177.902 276.058Z" fill="#40DF9F"/>
<path d="M237.629 80.519V80.5231C143.088 10.7387 34.7711 59.8566 33.9344 60.2337V60.2296C46.2116 47.9743 60.7899 38.2572 76.8342 31.635C92.8786 25.0128 110.074 21.6154 127.435 21.6376C173.398 21.6376 213.89 45.0206 237.629 80.519Z" fill="#E6E6E6"/>
<path d="M41.5172 156.381C57.5104 153.502 65.7059 124.759 59.8223 92.1801C53.9387 59.6016 36.2041 35.5253 20.2109 38.404C4.21764 41.2828 -3.97785 70.0265 1.90573 102.605C7.7893 135.184 25.524 159.26 41.5172 156.381Z" fill="#213924"/>
<path d="M45.6274 194.429C44.6792 122.87 20.697 55.7168 20.455 55.0474L18.2678 55.835C18.5087 56.5011 42.3593 123.303 43.3025 194.46L45.6274 194.429Z" fill="#40DF9F"/>
<path d="M3.07824 89.2974L2.36267 91.5063L31.0741 100.776L31.7897 98.5672L3.07824 89.2974Z" fill="#40DF9F"/>
<path d="M57.087 86.8091L33.4307 105.513L34.8744 107.333L58.5308 88.6291L57.087 86.8091Z" fill="#40DF9F"/>
<path d="M118.419 146.065C136.004 146.065 150.259 117.026 150.259 81.2045C150.259 45.3832 136.004 16.3442 118.419 16.3442C100.833 16.3442 86.5779 45.3832 86.5779 81.2045C86.5779 117.026 100.833 146.065 118.419 146.065Z" fill="#213924"/>
<path d="M115.478 187.37C128.231 110.984 115.607 34.8743 115.478 34.115L112.997 34.5345C113.125 35.2901 125.677 111 112.996 186.958L115.478 187.37Z" fill="#40DF9F"/>
<path d="M90.3858 67.2574L89.199 69.4727L117.992 84.8479L119.179 82.6326L90.3858 67.2574Z" fill="#40DF9F"/>
<path d="M148.38 74.9593L119.59 90.3433L120.778 92.5582L149.567 77.1742L148.38 74.9593Z" fill="#40DF9F"/>
<path d="M256.725 125.201C245.043 118.653 232.837 113.082 220.234 108.545C150.545 83.3694 81.4404 93.0722 54.3916 129.102C75.4417 84.9629 150.553 71.0839 226.35 98.4648C235.172 101.649 243.806 105.331 252.209 109.493C254.04 114.631 255.548 119.877 256.725 125.201V125.201Z" fill="#E6E6E6"/>
<path d="M162.606 54.1732L167.355 50.3807C163.665 49.9743 162.149 51.9833 161.529 53.5734C158.646 52.3785 155.508 53.9445 155.508 53.9445L165.011 57.3887C164.532 56.1103 163.697 54.9949 162.606 54.1732Z" fill="#213924"/>
</g>
<defs>
<clipPath id="clip0_12_8185">
<rect width="265" height="286" fill="white"/>
</clipPath>
</defs>
</svg>
