<svg width="36" height="36" viewBox="0 0 36 36" fill="none" xmlns="http://www.w3.org/2000/svg">
<ellipse cx="6" cy="4.82361" rx="6" ry="4.82361" fill="#FF8A1B"/>
<ellipse cx="30" cy="4.82361" rx="6" ry="4.82361" fill="#1FD224"/>
<path fill-rule="evenodd" clip-rule="evenodd" d="M24.7387 9.12032C22.6646 8.424 20.3881 8.03943 18 8.03943C8.33502 8.03943 0.5 14.3383 0.5 22.1083C0.5 22.5689 0.527529 23.0243 0.581337 23.4735C0.895495 22.1527 2.08302 21.1703 3.5 21.1703C5.15685 21.1703 6.5 22.5134 6.5 24.1703V32.7132C8.82531 34.3443 11.692 35.4891 14.8549 35.9506C14.8406 35.8319 14.8333 35.7112 14.8333 35.5887V20.2844C14.8333 19.7885 14.9536 19.3206 15.1667 18.9085L15.1667 18.8923C15.1667 14.1529 19.2477 10.1798 24.7387 9.12032Z" fill="#FF8A1B"/>
<path fill-rule="evenodd" clip-rule="evenodd" d="M35.4942 22.0989C35.4942 22.5595 35.4667 23.0149 35.4129 23.4642C35.0987 22.1433 33.9112 21.161 32.4942 21.161C30.8374 21.161 29.4942 22.5041 29.4942 24.161V32.7038C27.086 34.393 24.0971 35.5607 20.7999 35.9879C20.8181 35.8544 20.8275 35.7181 20.8275 35.5796V20.2754C20.8275 18.6185 19.4843 17.2754 17.8275 17.2754C16.6366 17.2754 15.6078 17.9692 15.1233 18.9747C15.1355 18.9494 15.148 18.9243 15.1609 18.8994L15.1609 18.8834C15.1609 14.1437 19.2423 10.1705 24.7338 9.11121C31.0532 11.2331 35.4942 16.249 35.4942 22.0989Z" fill="#1FD224"/>
</svg>
