<svg width="28" height="41" viewBox="0 0 28 41" fill="none" xmlns="http://www.w3.org/2000/svg">
<path d="M0.24 18L2.904 0.36H6.072L8.736 18H6.216L5.736 14.4H3.24L2.76 18H0.24ZM3.6 11.664H5.376L4.632 6.096L4.56 5.64H4.416L4.344 6.096L3.6 11.664ZM10.8966 18V0.36H13.4886C14.2246 0.36 14.8686 0.467999 15.4206 0.683999C15.9726 0.891999 16.4326 1.208 16.8006 1.632C17.1686 2.056 17.4446 2.588 17.6286 3.228C17.8126 3.86 17.9046 4.6 17.9046 5.448C17.9046 5.936 17.8726 6.392 17.8086 6.816C17.7446 7.232 17.6526 7.612 17.5326 7.956C17.4126 8.292 17.2606 8.588 17.0766 8.844C16.9006 9.092 16.6966 9.296 16.4646 9.456L18.1206 18H15.5286L14.1846 10.56H13.4886V18H10.8966ZM13.4886 8.16C13.8246 8.16 14.1126 8.108 14.3526 8.004C14.5926 7.9 14.7886 7.744 14.9406 7.536C15.1006 7.32 15.2166 7.048 15.2886 6.72C15.3686 6.392 15.4086 6 15.4086 5.544C15.4086 4.936 15.3406 4.44 15.2046 4.056C15.0686 3.672 14.8606 3.388 14.5806 3.204C14.3006 3.02 13.9366 2.928 13.4886 2.928V8.16ZM23.9604 18.192C22.9364 18.192 22.1164 17.852 21.5004 17.172C20.8844 16.492 20.5524 15.56 20.5044 14.376V0.36H23.0964V14.376C23.0964 14.776 23.1724 15.092 23.3244 15.324C23.4764 15.556 23.6884 15.672 23.9604 15.672C24.2324 15.672 24.4444 15.556 24.5964 15.324C24.7484 15.092 24.8244 14.776 24.8244 14.376V0.36H27.4164V14.376C27.3924 15.16 27.2364 15.84 26.9484 16.416C26.6604 16.984 26.2604 17.424 25.7484 17.736C25.2444 18.04 24.6484 18.192 23.9604 18.192ZM4.2 40.192C2.896 40.192 1.928 39.76 1.296 38.896C0.664 38.024 0.376 36.744 0.432 35.056L2.976 34.816C2.976 35.864 3.072 36.628 3.264 37.108C3.464 37.58 3.776 37.816 4.2 37.816C4.432 37.816 4.624 37.752 4.776 37.624C4.936 37.488 5.056 37.296 5.136 37.048C5.216 36.792 5.256 36.48 5.256 36.112C5.256 35.84 5.232 35.588 5.184 35.356C5.136 35.124 5.032 34.856 4.872 34.552C4.72 34.24 4.484 33.836 4.164 33.34C3.852 32.844 3.424 32.196 2.88 31.396C2.184 30.364 1.66 29.424 1.308 28.576C0.964 27.728 0.792 26.968 0.792 26.296C0.792 25.488 0.932 24.776 1.212 24.16C1.5 23.544 1.9 23.06 2.412 22.708C2.924 22.356 3.512 22.176 4.176 22.168C5.336 22.144 6.228 22.54 6.852 23.356C7.484 24.164 7.8 25.328 7.8 26.848L5.256 27.088C5.256 26.256 5.168 25.624 4.992 25.192C4.816 24.752 4.56 24.536 4.224 24.544C4.016 24.544 3.844 24.604 3.708 24.724C3.58 24.836 3.484 25.012 3.42 25.252C3.364 25.492 3.336 25.8 3.336 26.176C3.336 26.488 3.396 26.824 3.516 27.184C3.644 27.544 3.856 27.972 4.152 28.468C4.456 28.964 4.864 29.576 5.376 30.304C5.96 31.128 6.428 31.864 6.78 32.512C7.14 33.152 7.4 33.744 7.56 34.288C7.72 34.824 7.8 35.352 7.8 35.872C7.8 36.808 7.664 37.6 7.392 38.248C7.12 38.888 6.716 39.372 6.18 39.7C5.644 40.028 4.984 40.192 4.2 40.192ZM10.1466 40V22.36H12.7386V29.656H14.7546V22.36H17.3466V40H14.7546V32.32H12.7386V40H10.1466ZM20.2238 40V22.36H22.8158V40H20.2238ZM25.3712 40V37.336H27.8912V40H25.3712Z" fill="black"/>
</svg>
