<svg width="43" height="61" viewBox="0 0 43 61" fill="none" xmlns="http://www.w3.org/2000/svg">
<path d="M0.36 27L4.356 0.539999H9.108L13.104 27H9.324L8.604 21.6H4.86L4.14 27H0.36ZM5.4 17.496H8.064L6.948 9.144L6.84 8.46H6.624L6.516 9.144L5.4 17.496ZM17.2448 27V0.539999H21.1328C22.2368 0.539999 23.2028 0.701999 24.0308 1.026C24.8588 1.338 25.5488 1.812 26.1008 2.448C26.6528 3.084 27.0668 3.882 27.3428 4.842C27.6188 5.79 27.7568 6.9 27.7568 8.172C27.7568 8.904 27.7088 9.588 27.6128 10.224C27.5168 10.848 27.3788 11.418 27.1988 11.934C27.0188 12.438 26.7908 12.882 26.5148 13.266C26.2508 13.638 25.9448 13.944 25.5968 14.184L28.0808 27H24.1928L22.1768 15.84H21.1328V27H17.2448ZM21.1328 12.24C21.6368 12.24 22.0688 12.162 22.4288 12.006C22.7888 11.85 23.0828 11.616 23.3108 11.304C23.5508 10.98 23.7248 10.572 23.8328 10.08C23.9528 9.588 24.0128 9 24.0128 8.316C24.0128 7.404 23.9108 6.66 23.7068 6.084C23.5028 5.508 23.1908 5.082 22.7708 4.806C22.3508 4.53 21.8048 4.392 21.1328 4.392V12.24ZM37.7407 27.288C36.2047 27.288 34.9747 26.778 34.0507 25.758C33.1267 24.738 32.6287 23.34 32.5567 21.564V0.539999H36.4447V21.564C36.4447 22.164 36.5587 22.638 36.7867 22.986C37.0147 23.334 37.3327 23.508 37.7407 23.508C38.1487 23.508 38.4667 23.334 38.6947 22.986C38.9227 22.638 39.0367 22.164 39.0367 21.564V0.539999H42.9247V21.564C42.8887 22.74 42.6547 23.76 42.2227 24.624C41.7907 25.476 41.1907 26.136 40.4227 26.604C39.6667 27.06 38.7727 27.288 37.7407 27.288ZM6.3 60.288C4.344 60.288 2.892 59.64 1.944 58.344C0.996 57.036 0.564 55.116 0.648 52.584L4.464 52.224C4.464 53.796 4.608 54.942 4.896 55.662C5.196 56.37 5.664 56.724 6.3 56.724C6.648 56.724 6.936 56.628 7.164 56.436C7.404 56.232 7.584 55.944 7.704 55.572C7.824 55.188 7.884 54.72 7.884 54.168C7.884 53.76 7.848 53.382 7.776 53.034C7.704 52.686 7.548 52.284 7.308 51.828C7.08 51.36 6.726 50.754 6.246 50.01C5.778 49.266 5.136 48.294 4.32 47.094C3.276 45.546 2.49 44.136 1.962 42.864C1.446 41.592 1.188 40.452 1.188 39.444C1.188 38.232 1.398 37.164 1.818 36.24C2.25 35.316 2.85 34.59 3.618 34.062C4.386 33.534 5.268 33.264 6.264 33.252C8.004 33.216 9.342 33.81 10.278 35.034C11.226 36.246 11.7 37.992 11.7 40.272L7.884 40.632C7.884 39.384 7.752 38.436 7.488 37.788C7.224 37.128 6.84 36.804 6.336 36.816C6.024 36.816 5.766 36.906 5.562 37.086C5.37 37.254 5.226 37.518 5.13 37.878C5.046 38.238 5.004 38.7 5.004 39.264C5.004 39.732 5.094 40.236 5.274 40.776C5.466 41.316 5.784 41.958 6.228 42.702C6.684 43.446 7.296 44.364 8.064 45.456C8.94 46.692 9.642 47.796 10.17 48.768C10.71 49.728 11.1 50.616 11.34 51.432C11.58 52.236 11.7 53.028 11.7 53.808C11.7 55.212 11.496 56.4 11.088 57.372C10.68 58.332 10.074 59.058 9.27 59.55C8.466 60.042 7.476 60.288 6.3 60.288ZM16.1198 60V33.54H20.0078V44.484H23.0318V33.54H26.9198V60H23.0318V48.48H20.0078V60H16.1198ZM32.1356 60V33.54H36.0236V60H32.1356Z" fill="#FECACA"/>
</svg>
