<svg width="44" height="67" viewBox="0 0 44 67" fill="none" xmlns="http://www.w3.org/2000/svg">
<path d="M0.691875 27L4.68788 0.539999H9.43988L13.4359 27H9.65587L8.93588 21.6H5.19188L4.47187 27H0.691875ZM5.73188 17.496H8.39588L7.27987 9.144L7.17188 8.46H6.95588L6.84788 9.144L5.73188 17.496ZM17.5767 27V0.539999H21.4647C22.5687 0.539999 23.5347 0.701999 24.3627 1.026C25.1907 1.338 25.8807 1.812 26.4327 2.448C26.9847 3.084 27.3987 3.882 27.6747 4.842C27.9507 5.79 28.0887 6.9 28.0887 8.172C28.0887 8.904 28.0407 9.588 27.9447 10.224C27.8487 10.848 27.7107 11.418 27.5307 11.934C27.3507 12.438 27.1227 12.882 26.8467 13.266C26.5827 13.638 26.2767 13.944 25.9287 14.184L28.4127 27H24.5247L22.5087 15.84H21.4647V27H17.5767ZM21.4647 12.24C21.9687 12.24 22.4007 12.162 22.7607 12.006C23.1207 11.85 23.4147 11.616 23.6427 11.304C23.8827 10.98 24.0567 10.572 24.1647 10.08C24.2847 9.588 24.3447 9 24.3447 8.316C24.3447 7.404 24.2427 6.66 24.0387 6.084C23.8347 5.508 23.5227 5.082 23.1027 4.806C22.6827 4.53 22.1367 4.392 21.4647 4.392V12.24ZM38.0725 27.288C36.5365 27.288 35.3065 26.778 34.3825 25.758C33.4585 24.738 32.9605 23.34 32.8885 21.564V0.539999H36.7765V21.564C36.7765 22.164 36.8905 22.638 37.1185 22.986C37.3465 23.334 37.6645 23.508 38.0725 23.508C38.4805 23.508 38.7985 23.334 39.0265 22.986C39.2545 22.638 39.3685 22.164 39.3685 21.564V0.539999H43.2565V21.564C43.2205 22.74 42.9865 23.76 42.5545 24.624C42.1225 25.476 41.5225 26.136 40.7545 26.604C39.9985 27.06 39.1045 27.288 38.0725 27.288ZM7.98621 66.336C5.70421 66.336 4.01021 65.58 2.90421 64.068C1.79821 62.542 1.29421 60.302 1.39221 57.348L5.84421 56.928C5.84421 58.762 6.01221 60.099 6.34821 60.939C6.69821 61.765 7.24421 62.178 7.98621 62.178C8.39221 62.178 8.72821 62.066 8.99421 61.842C9.27421 61.604 9.48421 61.268 9.62421 60.834C9.76421 60.386 9.83421 59.84 9.83421 59.196C9.83421 58.72 9.79221 58.279 9.70821 57.873C9.62421 57.467 9.44221 56.998 9.16221 56.466C8.89621 55.92 8.48321 55.213 7.92321 54.345C7.37721 53.477 6.62821 52.343 5.67621 50.943C4.45821 49.137 3.54121 47.492 2.92521 46.008C2.32321 44.524 2.02221 43.194 2.02221 42.018C2.02221 40.604 2.26721 39.358 2.75721 38.28C3.26121 37.202 3.96121 36.355 4.85721 35.739C5.75321 35.123 6.78221 34.808 7.94421 34.794C9.97421 34.752 11.5352 35.445 12.6272 36.873C13.7332 38.287 14.2862 40.324 14.2862 42.984L9.83421 43.404C9.83421 41.948 9.68021 40.842 9.37221 40.086C9.06421 39.316 8.61621 38.938 8.02821 38.952C7.66421 38.952 7.36321 39.057 7.12521 39.267C6.90121 39.463 6.73321 39.771 6.62121 40.191C6.52321 40.611 6.47421 41.15 6.47421 41.808C6.47421 42.354 6.57921 42.942 6.78921 43.572C7.01321 44.202 7.38421 44.951 7.90221 45.819C8.43421 46.687 9.14821 47.758 10.0442 49.032C11.0662 50.474 11.8852 51.762 12.5012 52.896C13.1312 54.016 13.5862 55.052 13.8662 56.004C14.1462 56.942 14.2862 57.866 14.2862 58.776C14.2862 60.414 14.0482 61.8 13.5722 62.934C13.0962 64.054 12.3892 64.901 11.4512 65.475C10.5132 66.049 9.35821 66.336 7.98621 66.336ZM19.4427 66V35.13H23.9787V47.898H27.5067V35.13H32.0427V66H27.5067V52.56H23.9787V66H19.4427ZM38.1278 66V35.13H42.6638V66H38.1278Z" fill="#FECACA"/>
</svg>
