<svg xmlns="http://www.w3.org/2000/svg" width="810" viewBox="0 0 810 810" height="810" version="1.0"><g fill="#BFDBFE"><g><g><path d="M -31.511719 -7.28125 L -33.628906 36.394531 L -29.707031 37.300781 L -20.015625 -4.625 L -5.410156 -1.25 L -28.382812 98.15625 L -42.988281 94.78125 C -60.433594 90.746094 -65.59375 79.15625 -61.246094 60.355469 C -58.964844 50.484375 -54.332031 42.152344 -47.914062 39.644531 L -46.117188 -10.65625 Z M -32.832031 50.824219 C -34.859375 50.355469 -37.625 50 -40.226562 51.394531 C -42.828125 52.789062 -45.433594 56.035156 -47.058594 63.066406 C -48.683594 70.097656 -47.800781 74.292969 -46.074219 76.683594 C -44.347656 79.078125 -41.671875 79.839844 -39.644531 80.308594 Z M -32.832031 50.824219" transform="translate(383.808 607.638)"/></g></g></g><g fill="#BFDBFE"><g><g><path d="M -62.160156 81.09375 L -90.464844 61.746094 L -81.769531 49.023438 L -65.839844 59.914062 L -50.722656 37.796875 L -62.179688 29.964844 L -52.9375 16.441406 L -41.476562 24.273438 L -25.65625 1.125 L -41.582031 -9.761719 L -32.886719 -22.480469 L -4.582031 -3.132812 Z M -62.160156 81.09375" transform="translate(308.474 583.975)"/></g></g></g><g fill="#BFDBFE"><g><g><path d="M -78.738281 17.367188 C -81.480469 19.261719 -84.484375 21.503906 -86.332031 23.957031 C -88.066406 26.332031 -88.800781 28.691406 -87.460938 30.636719 C -85.140625 33.757812 -81.117188 32.5 -76.203125 29.113281 C -73.347656 27.140625 -71.242188 23.835938 -69.304688 19.800781 C -67.363281 15.765625 -65.707031 11.082031 -63.816406 6.238281 C -61.558594 0.464844 -59.1875 -5.386719 -56.457031 -10.472656 C -53.726562 -15.558594 -50.40625 -20.039062 -45.835938 -23.191406 C -40.238281 -27.050781 -34.351562 -29.761719 -28.652344 -29.8125 C -22.953125 -29.863281 -17.523438 -27.371094 -12.875 -20.628906 C -7.4375 -12.742188 -7.335938 -6.238281 -10.175781 -0.570312 C -13.011719 5.09375 -18.671875 9.84375 -24.957031 14.175781 L -34.453125 2.851562 C -30.910156 0.410156 -27.449219 -2.148438 -25.449219 -4.875 C -23.257812 -7.566406 -22.375 -10.199219 -24.1875 -12.828125 C -26.710938 -16.484375 -31.542969 -15.175781 -36.914062 -11.472656 C -39.65625 -9.582031 -41.910156 -6.003906 -43.960938 -1.890625 C -44.851562 0.242188 -45.859375 2.453125 -46.785156 4.777344 C -48.558594 9.542969 -50.628906 14.847656 -52.96875 20.507812 C -55.304688 26.164062 -58.226562 31.214844 -61.816406 35.546875 C -63.515625 37.730469 -65.566406 39.648438 -67.851562 41.222656 C -72.421875 44.375 -78.042969 46.738281 -83.628906 46.707031 C -89.097656 46.601562 -94.484375 44.414062 -98.617188 38.664062 C -103.851562 31.316406 -103.761719 24.847656 -100.960938 19.375 C -98.042969 13.820312 -92.917969 9.273438 -88.230469 6.042969 Z M -78.738281 17.367188" transform="translate(252.117 539.479)"/></g></g></g><g fill="#BFDBFE"><g><g><path d="M -109.464844 -22.058594 L -30.351562 -39.730469 C -26.257812 -40.503906 -22.417969 -40.507812 -18.96875 -39.710938 C -15.988281 -39.097656 -12.988281 -37.777344 -10.351562 -35.519531 C -7.578125 -33.296875 -5.542969 -29.910156 -4.453125 -25.035156 C -3.363281 -20.15625 -3.734375 -16.089844 -5.296875 -12.898438 C -6.726562 -9.734375 -8.90625 -7.398438 -11.34375 -5.574219 C -14.125 -3.386719 -17.601562 -1.757812 -21.636719 -0.714844 L -100.75 16.957031 L -104.019531 2.324219 L -24.902344 -15.34375 C -22.058594 -15.980469 -20.3125 -17.082031 -19.125 -18.769531 C -18.601562 -19.597656 -18.40625 -20.636719 -18.679688 -21.855469 C -19.253906 -24.429688 -21.152344 -25.285156 -23.304688 -25.375 C -24.34375 -25.570312 -25.59375 -25.433594 -27.082031 -25.097656 L -106.199219 -7.429688 Z M -109.464844 -22.058594" transform="translate(213.305 474.057)"/></g></g></g><g fill="#BFDBFE"><g><g><path d="M 6.144531 -29.773438 L -58.597656 -33.355469 L -62.921875 -33.683594 L -63.089844 -32.867188 L 3.929688 -19.03125 L 1.121094 -5.4375 L -98.796875 -26.066406 L -95.089844 -44.007812 L -47.617188 -43.28125 L -42.175781 -42.863281 L -42.121094 -43.136719 L -47.28125 -44.910156 L -91.164062 -63.042969 L -87.457031 -80.984375 L 12.460938 -60.359375 L 9.652344 -46.765625 L -57.367188 -60.601562 L -57.535156 -59.785156 L -53.433594 -58.371094 L 7.4375 -36.023438 Z M 6.144531 -29.773438" transform="translate(200.286 397.317)"/></g></g></g><g fill="#BFDBFE"><g><g><path d="M -80.417969 -63.03125 L -60.761719 -91.125 L -48.136719 -82.292969 L -59.199219 -66.484375 L -37.246094 -51.128906 L -29.289062 -62.5 L -15.867188 -53.113281 L -23.824219 -41.738281 L -0.847656 -25.664062 L 10.210938 -41.476562 L 22.835938 -32.644531 L 3.183594 -4.550781 Z M -80.417969 -63.03125" transform="translate(227.158 306.942)"/></g></g></g><g fill="#BFDBFE"><g><g><path d="M -12.488281 -54.242188 C -13.957031 -58.582031 -13.496094 -63.28125 -11.582031 -67.152344 C -9.667969 -71.023438 -6.300781 -74.066406 -1.699219 -75.625 C 2.640625 -77.09375 7.296875 -76.761719 11.167969 -74.847656 C 15.039062 -72.933594 18.125 -69.4375 19.59375 -65.097656 C 21.152344 -60.496094 20.777344 -55.972656 18.863281 -52.101562 C 16.949219 -48.230469 13.496094 -45.007812 9.15625 -43.542969 C 4.554688 -41.984375 -0.015625 -42.492188 -3.886719 -44.40625 C -7.757812 -46.320312 -10.933594 -49.640625 -12.488281 -54.242188 Z M -12.488281 -54.242188" transform="translate(318.827 221.156)"/></g></g></g><g fill="#BFDBFE"><g><g><path d="M 30.667969 10.265625 L 36.957031 -33.007812 L 33.140625 -34.285156 L 19.480469 6.519531 L 5.265625 1.761719 L 37.652344 -94.984375 L 51.867188 -90.226562 C 68.847656 -84.542969 72.871094 -72.511719 66.746094 -54.214844 C 63.53125 -44.605469 58.121094 -36.753906 51.488281 -34.875 L 44.886719 15.027344 Z M 37.546875 -47.445312 C 39.523438 -46.785156 42.242188 -46.167969 44.964844 -47.304688 C 47.6875 -48.445312 50.589844 -51.425781 52.878906 -58.269531 C 55.171875 -65.113281 54.695312 -69.371094 53.203125 -71.921875 C 51.714844 -74.46875 49.128906 -75.480469 47.152344 -76.140625 Z M 37.546875 -47.445312" transform="translate(445.186 205.785)"/></g></g></g><g fill="#BFDBFE"><g><g><path d="M 69.640625 -74.769531 L 95.960938 -52.796875 L 86.089844 -40.96875 L 71.273438 -53.332031 L 54.109375 -32.765625 L 64.765625 -23.871094 L 54.269531 -11.296875 L 43.613281 -20.191406 L 25.644531 1.335938 L 40.457031 13.699219 L 30.585938 25.527344 L 4.261719 3.558594 Z M 69.640625 -74.769531" transform="translate(517.885 236.55)"/></g></g></g><g fill="#BFDBFE"><g><g><path d="M 80.039062 -9.75 C 82.949219 -11.367188 86.15625 -13.3125 88.230469 -15.578125 C 90.183594 -17.777344 91.140625 -20.058594 89.992188 -22.121094 C 87.980469 -25.449219 83.855469 -24.582031 78.640625 -21.679688 C 75.609375 -19.992188 73.199219 -16.902344 70.882812 -13.074219 C 68.566406 -9.242188 66.464844 -4.738281 64.121094 -0.0976562 C 61.320312 5.429688 58.398438 11.027344 55.195312 15.832031 C 51.988281 20.632812 48.257812 24.773438 43.40625 27.472656 C 37.460938 30.78125 31.34375 32.914062 25.664062 32.421875 C 19.988281 31.925781 14.824219 28.921875 10.839844 21.765625 C 6.183594 13.398438 6.707031 6.910156 10.074219 1.542969 C 13.4375 -3.824219 19.53125 -8.007812 26.203125 -11.722656 L 34.570312 0.460938 C 30.808594 2.554688 27.117188 4.765625 24.867188 7.289062 C 22.429688 9.757812 21.296875 12.292969 22.847656 15.085938 C 25.007812 18.964844 29.945312 18.125 35.644531 14.953125 C 38.554688 13.335938 41.140625 9.988281 43.578125 6.089844 C 44.667969 4.054688 45.882812 1.949219 47.027344 -0.273438 C 49.246094 -4.847656 51.820312 -9.933594 54.6875 -15.339844 C 57.554688 -20.75 60.949219 -25.496094 64.9375 -29.464844 C 66.835938 -31.472656 69.0625 -33.1875 71.488281 -34.539062 C 76.339844 -37.238281 82.160156 -39.046875 87.714844 -38.484375 C 93.152344 -37.855469 98.300781 -35.164062 101.867188 -29.042969 C 106.375 -21.226562 105.664062 -14.796875 102.351562 -9.617188 C 98.917969 -4.371094 93.378906 -0.335938 88.40625 2.433594 Z M 80.039062 -9.75" transform="translate(569.728 286.24)"/></g></g></g><g fill="#BFDBFE"><g><g><path d="M 106.851562 32.441406 L 26.40625 42.453125 C 22.257812 42.832031 18.433594 42.46875 15.078125 41.347656 C 12.167969 40.449219 9.3125 38.847656 6.902344 36.347656 C 4.355469 33.867188 2.652344 30.304688 2.035156 25.34375 C 1.417969 20.386719 2.179688 16.375 4.039062 13.34375 C 5.761719 10.332031 8.15625 8.21875 10.757812 6.632812 C 13.738281 4.726562 17.351562 3.433594 21.46875 2.78125 L 101.914062 -7.230469 L 103.765625 7.648438 L 23.320312 17.660156 C 20.425781 18.019531 18.585938 18.949219 17.242188 20.515625 C 16.636719 21.289062 16.34375 22.304688 16.5 23.542969 C 16.824219 26.160156 18.632812 27.195312 20.765625 27.488281 C 21.78125 27.78125 23.039062 27.765625 24.554688 27.578125 L 105 17.5625 Z M 106.851562 32.441406" transform="translate(602.105 355.079)"/></g></g></g><g fill="#BFDBFE"><g><g><path d="M -8.96875 29.046875 L 55.132812 38.816406 L 59.40625 39.554688 L 59.652344 38.757812 L -5.734375 18.566406 L -1.636719 5.304688 L 95.84375 35.40625 L 90.441406 52.914062 L 43.253906 47.640625 L 37.878906 46.707031 L 37.796875 46.972656 L 42.761719 49.234375 L 84.707031 71.480469 L 79.300781 88.988281 L -18.183594 58.886719 L -14.089844 45.625 L 51.300781 65.816406 L 51.542969 65.019531 L 47.597656 63.21875 L -10.851562 35.148438 Z M -8.96875 29.046875" transform="translate(607.714 432.713)"/></g></g></g><g fill="#BFDBFE"><g><g><path d="M 74.011719 70.445312 L 51.757812 96.527344 L 40.035156 86.527344 L 52.558594 71.847656 L 32.179688 54.460938 L 23.167969 65.019531 L 10.707031 54.386719 L 19.71875 43.828125 L -1.613281 25.628906 L -14.136719 40.308594 L -25.855469 30.308594 L -3.605469 4.222656 Z M 74.011719 70.445312" transform="translate(572.298 520.097)"/></g></g></g><g fill="#BFDBFE"><g><g><path d="M 7.238281 55.191406 C 8.28125 59.648438 7.371094 64.28125 5.097656 67.953125 C 2.820312 71.625 -0.820312 74.332031 -5.550781 75.441406 C -10.011719 76.484375 -14.613281 75.710938 -18.285156 73.433594 C -21.953125 71.160156 -24.691406 67.382812 -25.738281 62.921875 C -26.847656 58.191406 -26.042969 53.726562 -23.765625 50.054688 C -21.488281 46.382812 -17.742188 43.511719 -13.285156 42.464844 C -8.554688 41.355469 -4.054688 42.296875 -0.386719 44.574219 C 3.285156 46.847656 6.128906 50.460938 7.238281 55.191406 Z M 7.238281 55.191406" transform="translate(472.847 596.712)"/></g></g></g></svg>